# xmcd
# Copyright (C) 1995-1998 Ti Kan
#
# Track frame offsets:
#       150
#       19275
#       32850
#       49350
#       73500
#       106125
#       121575
#       145875
#       170550
#       210150
#       246150
#       261649
#       281824
#       298774
#       317299
#
# Disc length: 4437 seconds
#
# Revision: 10
# Processed by: cddbd v1.5.2PL0 Copyright (c) Steve Scherf et al.
# Submitted via: CD-Transfer v1.0
#
DISCID=e211530f
DTITLE=Spears Britney - N/A
DYEAR=08
DGENRE=
TTITLE0=Black Gold
TTITLE1=Something New
TTITLE2=Yes We Can (Pete Heller Phela Clasic Radio Mix)
TTITLE3=Summertime  (Crookers Remix)
TTITLE4=Summertime (Alex Gaudino Remix)
TTITLE5=Reindrops (Encore Une Fois-Part 2) (Radio Edit)
TTITLE6=V. I . P. 2008 (Michael Mind Remix)
TTITLE7=Yeke Yeke (Michael Mind Remix)
TTITLE8=When I Grow Up (Dirty South Mix)
TTITLE9=Closer ( Cotto's Club Mix)
TTITLE10=Numba 1 (The Tide Is High) (Radio Edit)
TTITLE11=Got The Hots 
TTITLE12=Womanizer
TTITLE13=Human
TTITLE14=Just Dance (Remix)
EXTD=
EXTT0=
EXTT1=
EXTT2=
EXTT3=
EXTT4=
EXTT5=
EXTT6=
EXTT7=
EXTT8=
EXTT9=
EXTT10=
EXTT11=
EXTT12=
EXTT13=
EXTT14=
PLAYORDER=
